<?xml version="1.0" encoding="utf-8"?>
<!-- Generator: Adobe Illustrator 18.0.0, SVG Export Plug-In . SVG Version: 6.00 Build 0)  -->
<!DOCTYPE svg PUBLIC "-//W3C//DTD SVG 1.1//EN" "http://www.w3.org/Graphics/SVG/1.1/DTD/svg11.dtd">
<svg version="1.1" id="Layer_1" xmlns="http://www.w3.org/2000/svg" xmlns:xlink="http://www.w3.org/1999/xlink" x="0px" y="0px"
	 viewBox="0 0 480 178.9" enable-background="new 0 0 480 178.9" xml:space="preserve">
<path fill-rule="evenodd" clip-rule="evenodd" fill="#FFFFFF" d="M280.3,45.7L280.3,45.7l0.1-0.2L280.3,45.7 M133.2,174.8l-0.1-0.1
	l-0.1-0.1L133.2,174.8z M334.1,43.9l0.1,0.1l0.1,0.1L334.1,43.9z M452.9,105c2.9-3.8,3.4-7.4,3.4-12.7V75.4c2,1.6,4.1,2.2,5.7,2.6
	c2.5,0.5,11,1.1,15.8-11.3c1.4-3.6,2.2-7.9,2.2-11.2c0-8.1-5.7-16.8-15-16.8c-5,0-9.1,2.9-11.7,6.9l-0.7-0.9l-0.1-0.1
	c-3.1-3.7-7.6-5.8-12.3-5.8c-5.3,0-10.4,2.7-13.2,7.1c-1.1,1.7-1.8,3.3-2.3,5c-2.5-3.1-4.7-5.8-4.7-5.8c-3.4-4.2-7.4-6.2-12.2-6.2
	c-6.6,0-12,3.4-14.7,8.7c-0.6-1.2-1.3-2.3-2.4-3.5c-3-3.4-7.4-5.3-12-5.3c-4.6,0-9,1.9-11.9,5.3c-0.9,0.9-1.5,1.9-2.1,2.8
	c-2.8-4.8-8.1-8.1-14-8.1c-5.4,0-10.2,2.7-13.3,7.3c0,0-0.4,0.5-0.9,1.4c-0.6-1.1-1.3-2.2-2.3-3.3c-3-3.4-7.5-5.4-12.1-5.4
	c-6.4,0-11.7,3.5-14.3,8.9c-0.5-1-1.1-2-1.9-3l-0.1-0.1c-3.1-3.7-7.6-5.8-12.3-5.8c-5.3,0-10.3,2.7-13.2,7.1c-1.1,1.7-1.8,3.3-2.3,5
	c-2.5-3.1-4.7-5.8-4.7-5.8c-3.4-4.2-7.4-6.2-12.2-6.2c-6.4,0-11.7,3.2-14.4,8.2c-0.5-0.8-1-1.6-1.7-2.4c-3-3.6-7.8-5.8-12.5-5.8
	c-4.8,0-9.4,2.2-12.5,6.1c-1.2,1.5-1.9,2.8-2.5,4.3c-0.7-1.8-1.7-3.6-3.3-5.3c-3-3.2-7.4-5.1-11.8-5.1c-4.7,0-9.6,2.4-12.6,6.2
	l-0.1,0.1c-2.5,3.3-3.1,6.1-3.3,10.4c-1.7-2.6-3.8-5-6.1-7.1c-6.9-6.1-15.2-9.1-25.6-9.1h-11.9c-8.3,0-14.4,3.9-16.7,10.8
	c-0.6,1.7-0.7,2.8-0.8,5.3h-0.3c-1.7-9.5-10-16.7-19.9-16.7H50.4c-0.4-2.1-1.2-3.9-2.1-5.6c3,0.6,6.4,0.1,9.6-1.7l-2,0.5l2.6-0.9
	l0.1,0l0,0l0.1-0.1c4.4-3.3,6.9-8.4,6.9-13.8c0-1.4-0.2-2.8-0.5-4.2C63.4,6.1,58,1.3,51.1,0.1c-3.3-0.5-10.3,0.2-15.9,4.3
	c-4.3,3.2-7.1,7.8-7.8,13.4c-0.1,0.9-0.2,1.7-0.2,2.5c0,2,0.4,3.8,0.9,5.5c-5.6-2.7-12.2-2.1-18.1,2l-0.1,0
	c-6.3,4.5-8.1,9.7-8.6,13.3c-0.3,2.7,0,5.5,1.1,8C0.9,52.1,0,55.4,0,58.9v98.5c0,11.2,9.1,20.4,20.3,20.4h84.9
	c9.8,0,18.1-7.1,19.9-16.4h0.9l0,1.2c0.1,1.3,0.2,2.3,0.5,3.4c1,3.7,3.2,6.6,6.6,8.8c3.3,2.2,6.5,2.7,11.7,2.7h8.2
	c4.3,0,8.3-0.3,11.1-0.8l0.1,0c6.2-1.3,12.2-4.4,16.9-8.7l1.2-1.2l0.1-0.1c1.8-1.8,3.3-3.8,4.6-5.9c1.2,2,2.6,3.9,4.1,5.7
	c7,7.9,17.2,12.5,27.9,12.5c10.6,0,20.7-4.5,27.8-12.5l0.8-1c0.5,2.2,1.3,4.1,2.7,6l0.1,0.2c3,3.9,7.8,6.2,12.7,6.2
	c4.7,0,9.2-2.1,12.3-5.8l0.1-0.1c1.6-2.1,2.6-4.1,3.1-6.5l4.8,6.1c3.2,4.1,7.5,6.4,12.6,6.4c4.9,0,9.6-2.3,12.5-6
	c1.4-1.9,2.3-3.7,2.8-5.9v0l0.2,0.2c5.9,8,15.3,12.8,25.1,12.8c8.9,0,17.4-3.9,23.3-10.8l1.7-2.2c4.1-5.5,6-12,6-20.4v-9.9
	c1.5,0.5,3.2,0.8,5,0.8c0,7.8,0,23.4,0,23.4l0.1,2.7c0.2,3.4,1,5.8,2.6,8.4l0.2,0.3c3.1,4.2,7.8,6.6,13.1,6.6
	c5.6,0,10.4-2.7,13.3-7.3c1.5-2.4,2.2-4.8,2.5-7.8c0,0,0-1,0.1-1.8h1.7c0.2,1.3,0.6,2.6,1.2,3.8c3.8,8.6,14.4,14.1,26.9,14.1
	c8.9,0,15.7-2.5,20.9-7.7c1.8-1.8,3.2-3.8,4.4-6c2-3.8,3-8.1,3-12.4c0-7-2.7-13.6-7.3-17.9c2.3-2,4-4.7,4.7-7.8
	c1.7,1.3,3.8,2.1,6.1,2.1c4.7,0,8.7-3.4,9.5-8l0,0l0-0.4l0.1-1.3c0-5.4-4.3-9.7-9.7-9.7c-3.7,0-6.9,2.1-8.6,5
	c-1.8-2.7-4.5-5-7.7-6.7C451,107.2,452,106.2,452.9,105z M466.3,123.9L466.3,123.9L466.3,123.9L466.3,123.9z M427,45.7L427,45.7
	l0.1-0.1L427,45.7z M366.8,44L366.8,44l0.1-0.1L366.8,44z"/>
<path fill-rule="evenodd" clip-rule="evenodd" fill="#F5821F" d="M232.6,45c-2.9,0-5.7,1.4-7.5,3.7c-1.8,2.1-2.1,3.4-2.1,7.8V80
	c0,4.1-1.9,6.5-5.3,6.5c-3.3,0-5.3-2.6-5.3-6.8V56.5c0-4.2-0.7-6.4-2.6-8.4c-1.8-1.8-4.5-3.1-7.2-3.1c-2.8,0-5.8,1.5-7.7,3.8
	c-1.7,2.2-2,3.6-2,9.2v20.7c0,7.8,1.1,11.9,4.8,16.9c4.7,6.4,12.2,10.2,20,10.2c7,0,13.9-3.2,18.6-8.6c4.2-4.8,6.2-10.5,6.2-18.5
	V57.8c0-5.3-0.4-7.1-2.3-9.3C238.4,46.4,235.4,45,232.6,45 M184,64.4c-1.6-4.4-4.3-8.3-7.8-11.5c-5.7-5.1-12.5-7.5-21.4-7.5h-11.9
	c-5.6,0-9.3,2.2-10.7,6.4c-0.4,1.3-0.4,1.9-0.4,6.8v32.4c0,4.1,0,5,0.3,6.4c0.6,2.3,1.9,3.9,4.1,5.3c1.8,1.2,3.6,1.6,8.2,1.6h8.2
	c4.1,0,7.6-0.3,10-0.7c5.1-1.1,10.1-3.6,13.9-7.1c6-5.6,9.5-13.5,9.5-21.6C185.9,71.2,185.2,67.7,184,64.4z M159.3,64.4l0.9,0.4
	c3.8,1.9,6.3,5.8,6.3,10.2c0,3.6-1.9,7.2-4.8,9.4c-2.3,1.6-3.9,1.9-10.6,1.9V63.5h1.6C155.8,63.5,157.7,63.8,159.3,64.4L159.3,64.4z
	 M293.5,45c-3.2,0-6.3,1.7-7.9,4.2c-1.4,2-1.8,3.8-1.8,7.7v10.9l-2.8-3.5l-12.6-15.5c-2.2-2.7-4.4-3.9-7.2-3.9
	C255,45,251,49.1,251,55.4v37.3c0,4.3,0.4,6.1,2,8.3c1.9,2.4,4.8,3.8,7.8,3.8c2.9,0,5.7-1.3,7.5-3.5c1.7-2.1,2.2-3.9,2.2-7.8V81.1
	l15.4,19.7c2,2.6,4.6,4,7.7,4c3,0,5.8-1.3,7.6-3.6c1.7-2.2,2.1-4.1,2.1-8.8v-36c0-3.6-0.6-5.7-2.3-7.8C299.1,46.3,296.4,45,293.5,45
	z M349.2,74.2l6.8-9.8l3.1-4.6c1-1.4,1.5-3.3,1.5-5.1c0-5.2-4.5-9.7-9.8-9.7c-3.3,0-6.1,1.6-8,4.5l-10.1,14.9l-0.7,1v-9.4
	c0-3.5-0.7-5.7-2.6-7.7c-1.8-2-4.5-3.3-7.3-3.3c-5.8,0-9.7,4.4-9.7,10.9v37.8c0,6.8,3.8,11.1,9.9,11.1c5.8,0,9.7-4.4,9.7-11.2V83.4
	l14.6,18.5c1.4,1.8,4.1,2.9,6.8,2.9c5.3,0,9.7-4.5,9.7-9.9c0-2-0.6-3.8-1.9-5.3L349.2,74.2z M440.2,45c-3.2,0-6.3,1.7-7.9,4.2
	c-1.4,2-1.8,3.8-1.8,7.7v10.9l-2.8-3.5l-12.6-15.5c-2.2-2.7-4.4-3.9-7.2-3.9c-6.1,0-10.2,4.1-10.2,10.4v37.3c0,4.3,0.4,6.1,2,8.3
	c1.9,2.4,4.8,3.8,7.8,3.8c2.9,0,5.7-1.3,7.5-3.5c1.7-2.1,2.2-3.9,2.2-7.8V81.1l15.4,19.7c2,2.6,4.6,4,7.7,4c3,0,5.8-1.3,7.6-3.6
	c1.7-2.2,2.1-4.1,2.1-8.8v-36c0-3.6-0.6-5.7-2.3-7.8C445.8,46.3,443.2,45,440.2,45z M465,45c-5.1,0-8.6,6.2-8.6,11.3
	c0,2.3,0,5.3,0.5,8.1c0.7,3.5,2.4,6.6,6.3,7.3c4.1,0.8,6.9-3,8.6-7.3h0c1.2-3.2,1.8-6.8,1.8-9C473.7,50.3,470.2,45,465,45z
	 M378.8,45c-2.8,0-5.4,1.2-7.2,3.2c-2,2.2-2.5,4-2.5,8.9v36.5c0,4.1,0.6,6.1,2.5,8.1c1.7,1.8,4.6,3.1,7.2,3.1c2.6,0,5.4-1.2,7.2-3.3
	c1.8-1.9,2.5-4.2,2.5-7.9V57.1c0-4.8-0.6-6.8-2.6-9C384.2,46.1,381.6,45,378.8,45z"/>
<path fill-rule="evenodd" clip-rule="evenodd" fill="#E11383" d="M361.2,120.7c-0.2-2.5-0.8-3.8-2.1-5.4c-1.7-2.1-4.7-3.5-7.5-3.5
	c-2.9,0-5.6,1.4-7.4,3.7c-1.3,1.6-1.9,2.7-2,5.2c0,0.7-0.1,1.5-0.1,2.5v23.5c0,4.1-2,6.7-5.5,6.7c-3.5,0-5.5-2.7-5.5-7v-23.3
	c0-0.9,0-1.8-0.1-2.5c-0.3-2.6-1-4.2-2.5-5.8c-1.7-1.8-4.4-3-7.1-3c-2.8,0-5.7,1.5-7.6,3.7c-1.2,1.5-1.7,2.6-1.9,5.1
	c-0.1,1-0.1,2.3-0.1,4v20.8c0,7.7,1.1,11.8,4.6,16.6l0.1,0.2c4.7,6.3,12.1,10.2,19.9,10.2c6.9,0,13.8-3.2,18.6-8.6
	c0.5-0.6,1-1.2,1.4-1.7c3.2-4.4,4.7-9.7,4.7-16.6v-21C361.3,123,361.3,121.8,361.2,120.7"/>
<path fill-rule="evenodd" clip-rule="evenodd" fill="#E11383" d="M467.3,119.7c1.5,0,2.7-0.7,2.7-2.3c0-0.7-0.3-1.5-1-1.8
	c-0.6-0.4-1.4-0.4-2.1-0.4h-3.7v8.5h1v-3.9h1.9l0.6,1l1.8,2.9h1.2l-1.9-2.9L467.3,119.7 M465.9,118.9h-1.6v-3h2.4
	c1.1,0,2.2,0.2,2.2,1.5C468.9,119.1,467.1,118.9,465.9,118.9z"/>
<path fill-rule="evenodd" clip-rule="evenodd" fill="#E11383" d="M473.6,120.7c0.1-0.4,0.1-0.9,0.1-1.3c0-4.2-3.4-7.6-7.6-7.6
	c-4.2,0-7.7,3.4-7.7,7.6c0,0.5,0,0.9,0.1,1.3c0.6,3.6,3.8,6.3,7.5,6.3C469.8,127,472.9,124.3,473.6,120.7h-0.9
	c-0.6,3.1-3.3,5.4-6.6,5.4c-3.3,0-6-2.3-6.6-5.4c-0.1-0.4-0.1-0.9-0.1-1.3c0-3.7,3-6.7,6.7-6.7c3.7,0,6.7,3,6.7,6.7
	c0,0.5,0,0.9-0.1,1.3H473.6"/>
<path fill-rule="evenodd" clip-rule="evenodd" fill="#E11383" d="M177.8,162.2c5.3-5.5,8.4-12.9,8.4-20.5c0-3.6-0.7-7.2-1.9-10.6h0
	c-1.5-3.9-3.8-7.4-6.8-10.4h0l-1-0.9c-5.7-5.1-12.5-7.5-21.3-7.5h-12c-5.6,0-9.2,2.2-10.5,6.3c-0.2,0.7-0.3,1.1-0.4,2v0
	c-0.1,0.9-0.1,2.3-0.1,4.7v32.5c0,2.1,0,3.3,0,4.2c0,0.9,0.1,1.4,0.3,2.1c0.6,2.3,1.8,3.8,4,5.2c1.7,1.2,3.5,1.6,8.1,1.6h8.2
	c4.1,0,7.6-0.3,10-0.7c5.1-1,10-3.6,13.8-7.1L177.8,162.2L177.8,162.2 M151.4,131.1v-0.9h1.8c3.2,0,5.2,0.3,6.9,0.9h0l0.7,0.3
	c3.9,1.9,6.4,5.9,6.4,10.3c0,3.7-1.9,7.4-4.8,9.5c-2.3,1.6-4,1.9-10.7,2h-0.2V131.1z"/>
<path fill-rule="evenodd" clip-rule="evenodd" fill="#E11383" d="M248.1,131.1c-1.4-3.9-3.6-7.4-6.4-10.4c-5.7-6-13.7-9.8-22.7-9.8
	c-9,0-17.1,3.8-22.8,9.8v0c-2.8,3-4.9,6.5-6.3,10.3v0c-1.2,3.2-1.8,6.7-1.8,10.3c0,8,2.9,15.3,7.8,20.8h0
	c5.6,6.4,13.9,10.4,23.2,10.4c9.1,0,17.4-4,23-10.4c4.9-5.5,7.9-12.7,7.9-20.5C250,137.9,249.3,134.4,248.1,131.1 M219.1,153.6
	c-6.5,0-11.8-5.4-11.8-11.9c0-4.7,2.9-8.8,7.1-10.6c1.4-0.6,3-0.9,4.7-0.9c1.7,0,3.2,0.3,4.7,0.9c4.2,1.8,7.1,5.9,7.1,10.6
	C230.9,148.2,225.6,153.6,219.1,153.6z"/>
<path fill-rule="evenodd" clip-rule="evenodd" fill="#E11383" d="M305.5,120.7c-0.2-2.2-0.9-3.8-2.2-5.4c-1.8-2.2-4.4-3.5-7.3-3.5
	c-3.1,0-6.2,1.7-7.8,4.2c-1,1.4-1.4,2.7-1.6,4.7v0c-0.1,0.8-0.1,1.8-0.1,2.9v11.5l-3.3-4.1l-8.4-10.4l-4.1-5
	c-2.2-2.7-4.3-3.8-7.1-3.8c-5.5,0-9.4,3.5-9.9,8.8c0,0.5-0.1,1-0.1,1.4v37.3c0,1,0,1.9,0.1,2.7c0.2,2.5,0.7,3.9,1.9,5.6
	c1.8,2.3,4.7,3.7,7.7,3.7c2.9,0,5.6-1.3,7.4-3.5c1.4-1.7,2-3.2,2.1-5.8c0-0.6,0-1.2,0-1.9v-12.9l11.5,14.7l4.2,5.4
	c2,2.6,4.5,3.9,7.6,3.9c3,0,5.7-1.3,7.5-3.6c1.2-1.6,1.8-3.1,2-5.7c0.1-0.9,0.1-1.9,0.1-3v-36.1
	C305.6,122.2,305.6,121.4,305.5,120.7"/>
<path fill-rule="evenodd" clip-rule="evenodd" fill="#E11383" d="M413.2,120.7c-0.2-4.3-3.4-7.6-7.8-8.2c-0.6-0.1-0.9-0.1-1.7-0.2
	c-0.8,0-2.2,0-4.9,0h-19.6c-7.7,0-8.5,0.1-10.5,1c-2.6,1.1-4.7,4.3-4.9,7.4v0l0,0.5c0,2.3,1,4.5,2.7,6.3c1.7,1.7,3.9,2.5,7.2,2.5
	h5.4v29.7c0,0.9,0,1.6,0.1,2.3c0.1,2.4,0.6,3.7,1.6,5.3c1.8,2.5,4.7,4,7.9,4c3.3,0,6.2-1.6,7.9-4.3c0.9-1.5,1.4-2.9,1.6-5
	c0.1-0.7,0.1-1.5,0.1-2.5v-29.6h4.5c3.5,0,5.9-0.7,7.4-2.1c1.9-1.7,3.1-4.3,3.1-6.9L413.2,120.7"/>
<path fill-rule="evenodd" clip-rule="evenodd" fill="#E11383" d="M450.4,138.9c-2.7-2.3-7.5-4.7-12.5-6.2c-2-0.6-3.3-1.2-4.3-1.7v0
	c-1.2-0.7-1.7-1.4-1.7-2.5c0-1.3,1.1-2.5,2.5-2.5c1.1,0,2.1,0.5,4.2,2.2c2,1.5,3.5,2.4,5,2.9h0c1,0.3,1.9,0.5,3,0.5
	c1,0,1.9-0.2,2.7-0.5v0c2.9-1.1,4.7-3.8,4.7-7.4c0-1-0.2-2-0.5-2.9c-1.9-5.7-9.2-9.8-18.3-9.8c-8.8,0-15.7,3.7-19.1,9.8v0
	c-1.5,2.7-2.4,5.9-2.4,9.4l0,1v0c0.3,7.6,4.5,12.8,12.7,15.7c1.6,0.6,3.2,1.1,4.8,1.7c3.1,1.1,3.4,1.3,3.9,1.7
	c1.1,0.7,1.6,1.5,1.6,2.6c0,1.6-1,2.7-2.6,2.7c-1.5,0-2.1-0.4-6.3-3.7c-2.5-2-4.5-2.8-6.8-2.8c-4.9,0-8.7,3.8-8.7,8.7
	c0,1.6,0.3,3,1,4.4v0c2.7,6,10.9,10.4,21.1,10.4c7.2,0,12.5-2,16.4-5.9c1.3-1.3,2.4-2.8,3.2-4.5c1.5-2.9,2.3-6.1,2.3-9.5
	C456.3,147.2,454,141.9,450.4,138.9"/>
<path fill="#F5821F" d="M17,59.4c-4.1-0.1-7.9-1.8-10.7-4.4c-0.3,1.1-0.5,2.4-0.5,3.6v11.6C7.4,66.8,11.1,63.2,17,59.4"/>
<path fill="#F5821F" d="M27.4,114.8c-4.7-0.6-7.8-2.6-9.1-5.7L6.4,78.9l-0.5-1v79.6c0,7.9,6.4,14.3,14.3,14.3h37.5
	c-1.3-1.3-2.4-2.8-3.3-4.6C54.4,167.2,31.4,122.7,27.4,114.8"/>
<path fill="#E11383" d="M105.4,44.3H84.2l0.1,0.1c0.4,0.5,0.7,1.1,0.9,1.7c0.2,0.4,0.3,0.9,0.4,1.4c10.3,26,11.7,29.7,11.9,30.2v0
	l0,0.1l0-0.1c0.4,0.9,0.5,1.9,0.5,2.9c0,2.4-1,4.9-3.2,7.5c2.6,8,7.3,23.9,15.7,55l0.5,1.7l0-0.1c3.3,10.7-1.6,20.7-12.9,27.3h7.3
	c7.9,0,14.3-6.4,14.3-14.3V58.6C119.7,50.7,113.3,44.3,105.4,44.3"/>
<path fill="#683817" d="M61.3,45.6L61.3,45.6c-6.1,1.3-13.3,3.5-19.9,6.1c-6.6,2.6-13.4,5.9-18.7,9.2C13.4,66.4,8.6,71.4,9.5,74.7
	l0,0.3c0,0.4,0.1,0.7,0.2,1l0.4,0.7l0.2,0.4l12,30.4c0.7,1.8,3,2.9,6.8,3.2c0.6,0.1,1.2,0.4,1.5,1l27.7,53.6
	c5.3,10.5,20.5,10.2,32.3,5.4c13.3-5.4,19.4-14.6,16.3-24.8l-0.5-1.7C97.5,111.3,92.7,95.5,90.3,88c-0.2-0.6-0.1-1.3,0.4-1.8
	c2.6-2.8,3.5-5.1,2.8-7l-12-30.4l-0.1-0.4l-0.2-0.8l-0.5-0.9l-0.2-0.2C78.8,43.5,71.9,43.2,61.3,45.6"/>
<path fill="#683817" d="M37.7,7.9c-3.4,2.5-5.5,6.2-6.2,10.6c-0.9,6.1,2.6,10.2,5.7,13.8c3.3,3.9,6.2,7.3,4.4,13.2
	c-0.2,0.6-0.1,1.1,0.2,1.6c0.3,0.5,0.7,0.9,1.3,1c1.1,0.4,2.3-0.3,2.7-1.4c2.5-8.1-1.8-13.2-5.3-17.2c-3.3-3.8-5.3-6.4-4.7-10.4
	c0.5-3.3,2-5.9,4.5-7.7c3.6-2.7,8.3-3,9.5-2.8c5.1,0.8,6.6,4.7,7,6.3c0.3,1.1,0.3,2.2,0.2,3.3c-0.3,2.3-1.4,4.3-3.2,5.7l-0.1,0
	c-2.1,1.1-3.9,1.1-5,0c-1.1-1-1.2-2.6-0.8-3.5c0.4-0.8,1.5-1.1,3.1-0.9c0.6,0.1,1.1,0,1.6-0.4c0.5-0.3,0.8-0.8,0.9-1.4
	c0.2-1.2-0.6-2.3-1.8-2.5c-3.5-0.6-6.3,0.6-7.6,3.1c-1.4,2.7-0.7,6.3,1.6,8.5c2.6,2.5,6.4,2.7,10.3,0.6l0.3-0.2
	c4.2-3.1,6-8.5,4.8-13.6c-1.2-5-5.2-8.6-10.5-9.5C48.3,4,42.4,4.4,37.7,7.9"/>
<path fill="#683817" d="M12.4,31.3c-4.4,3.1-6.4,6.8-6.8,10.4c-0.4,3.1,0.4,6,2,8.3c3.3,4.8,10.1,7.2,17,2.7l0.1-0.1
	c3.6-2.7,3.5-8.1,1.1-11.4c-2.3-3.2-6-3.7-9.5-1.4c-1,0.7-1.2,2-0.6,3c0.3,0.5,0.8,0.8,1.4,0.9c0.6,0.1,1.1,0,1.6-0.3
	c2-1.4,3-0.5,3.6,0.3c0.7,0.9,1,2.3,0.8,3.5c-0.1,0.9-0.4,1.5-1,1.9c-4.7,3.1-8.9,1.4-11-1.6c-2.3-3.4-2.1-8.6,3.7-12.7
	c5.7-3.9,9.9-1.5,11.8,0.3c3.7,3.4,5.2,9.3,3.1,12.9c-0.6,1-0.2,2.4,0.8,2.9c0.5,0.3,1.1,0.4,1.6,0.2c0.6-0.2,1-0.5,1.3-1
	c3-5.4,1.3-13.4-4-18.2C24.8,27.5,18.3,27.2,12.4,31.3"/>
<path fill="#FFFFFF" d="M72.9,54c-7,0.8-17.4,3.6-27.4,7.5c-10,4-19.6,9.4-25.2,13.7c-3.9,0.3-6.3,0-7.2-0.5
	c0.6-2.4,10.2-11.2,30-19.1c19.8-7.9,32.5-8.3,34.6-6.9C77.5,49.7,76,51.6,72.9,54"/>
<path fill="#FFFFFF" d="M102.9,146.8c2.6,8.6-3.9,15.7-13.9,19.7c-10.4,4.2-23.1,4.4-27-3.4c-1.3-2.7-18.7-34.6-27.2-52.5
	c8.7-0.9,19.3-4,27-7.1c7.8-3.1,17.6-8.1,24.5-13.4C92.6,109,102,143.9,102.9,146.8"/>
<path fill="#FFFFFF" d="M60.4,99.4c-18.3,7.2-32.1,7.8-34.2,6L16.1,80.3c9.4,0.7,24-3.8,33.6-7.6c9.6-3.8,23.3-10.6,29.7-17.5
	l10.1,25.1C89.1,83,78.7,92.1,60.4,99.4"/>
<path fill-rule="evenodd" clip-rule="evenodd" fill="#F5821F" d="M67.7,119.1c-1-1.1-2.2-1.9-3.6-2.4c-2.3-0.9-4.7-0.8-7.4-0.1
	c-1.2,0.3-2.5,0.7-3.7,0.9c-1.8,0.4-2.6,1.3-2.5,2.5c0,0.4,0.1,0.6,0.7,1.9c1.4,3,2.7,6.1,4.1,9.1c0.5,1.1,0.6,1.4,0.9,1.8
	c0.5,0.6,1,1,1.9,1.2c0.7,0.2,1.3,0.2,2.6-0.1c0.8-0.2,1.6-0.4,2.4-0.6c1.2-0.3,2.2-0.7,2.8-1c1.4-0.7,2.5-1.9,3.2-3.3
	c1.1-2.2,1.2-4.9,0.3-7.2C69,120.9,68.4,119.9,67.7,119.1 M63.4,127c-0.5,0.6-0.9,0.9-2.9,1.4c-0.9-2.1-1.8-4.3-2.7-6.4l0.5-0.1
	c0.9-0.2,1.5-0.3,2.1-0.3l0.3,0c1.4,0.2,2.6,1.1,3.1,2.3C64.2,125,64,126.2,63.4,127z"/>
<path fill-rule="evenodd" clip-rule="evenodd" fill="#E11383" d="M84,111c-0.9-1-2-1.7-3.2-2.1c-2.1-0.6-4.2-0.2-6.8,1.1
	c-1.2,0.6-2.3,1.1-3.5,1.6c-1.6,0.7-2.5,1.8-2.4,3.2c0,0.4,0.1,0.6,0.6,2c1.2,3.1,2.4,6.2,3.6,9.3c0.4,1.2,0.5,1.4,0.8,1.8
	c0.4,0.6,1,0.9,1.7,1c0.6,0.1,1.2,0,2.5-0.5c0.8-0.3,1.5-0.7,2.3-1c1.1-0.5,2-1.1,2.6-1.6c1.3-1,2.3-2.5,3-4.1
	c1-2.6,1.2-5.5,0.4-7.9C85.1,112.7,84.6,111.8,84,111 M79.9,120.3c-0.5,0.8-0.9,1.1-2.7,2c-0.8-2.2-1.6-4.4-2.4-6.6l0.5-0.2
	c0.9-0.4,1.4-0.6,1.9-0.7l0.3,0c1.3,0,2.3,0.8,2.8,2C80.6,117.9,80.5,119.3,79.9,120.3z"/>
</svg>
