<?xml version="1.0"?><svg width="204.6228" height="310.7615400000001" xmlns="http://www.w3.org/2000/svg">
 <title>Cutlery</title>
 <metadata id="metadata57">image/svg+xmlCutleryOct 22, 2009Mois Moshevcutleryknifeforkspoontoolsfood</metadata>

 <g>
  <title>Layer 1</title>
  <path fill="#000000" fill-rule="nonzero" id="path3688" d="m59.401794,167.478714c0,78.597183 -15.580101,106.117355 -6.627701,133.867935c4.265305,13.221832 22.515701,11.663696 25.662704,0c7.252998,-26.880615 -6.315002,-46.617081 -6.315002,-132.806335c0,-10.543488 15.195,-25.246033 15.195,-52.415627c0,-48.305305 -6.891998,-113.974598 -21.9086,-113.974598c-14.395699,0 -11.099602,84.652966 -11.099602,130.950268c0,19.885376 5.093201,25.06131 5.093201,34.378357l0,0z"/>
  <path fill="#000000" fill-rule="nonzero" id="path3642" d="m135.769318,144.340897c0,91.72142 -15.288139,117.977951 -6.627716,155.434677c3.618408,15.649811 22.516022,13.610626 25.662964,0c7.992188,-34.56662 -6.315247,-66.380173 -6.315247,-156.253586c0,-12.303833 10.200012,-12.621674 15.720032,-28.495956c4.928711,-14.173882 -2.029175,-90.507109 -4.271118,-90.507109c-2.558197,0 -1.305969,66.103361 -6.155548,66.103361c-4.892639,0 -2.418304,-65.206886 -5.512604,-66.103361c-3.09433,-0.896507 -0.824829,66.103361 -6.549652,66.103361c-5.782562,0 -2.0242,-66.103361 -5.11853,-66.103361c-3.094299,0 -2.223724,66.103361 -6.943695,66.103361c-5.196114,0 -2.403725,-66.103361 -4.724464,-66.103361c-3.944504,0 -8.564438,71.789648 -6.111115,86.953154c2.453339,15.163513 16.946693,18.036942 16.946693,32.86882z"/>
  <path opacity="0.3" fill="#000000" fill-opacity="0.776905" fill-rule="nonzero" id="path3811" d="m123.973137,26.52957a0.466135,1.052255 0 1 1 -0.932266,-0.260431a0.466135,1.052255 0 1 1 0.932266,0.260431z"/>
 </g>
</svg>